<?xml version="1.0" encoding="utf-8"?>
<!-- Generator: Adobe Illustrator 15.1.0, SVG Export Plug-In  -->
<!DOCTYPE svg PUBLIC "-//W3C//DTD SVG 1.1//EN" "http://www.w3.org/Graphics/SVG/1.1/DTD/svg11.dtd" [
	<!ENTITY ns_flows "http://ns.adobe.com/Flows/1.0/">
]>
<svg version="1.1"
	 xmlns="http://www.w3.org/2000/svg" xmlns:xlink="http://www.w3.org/1999/xlink" xmlns:a="http://ns.adobe.com/AdobeSVGViewerExtensions/3.0/"
	 x="0px" y="0px" width="255px" height="68px" viewBox="0 0 255 68" overflow="visible" enable-background="new 0 0 255 68"
	 xml:space="preserve">
<defs>
</defs>
<g>
	<defs>
		<rect id="SVGID_1_" x="0" width="254.625" height="67.501"/>
	</defs>
	<clipPath id="SVGID_2_">
		<use xlink:href="#SVGID_1_"  overflow="visible"/>
	</clipPath>
	<path clip-path="url(#SVGID_2_)" fill-rule="evenodd" clip-rule="evenodd" fill="#D10019" d="M244.568,10.885v-7.76h3.299
		c0.83,0,1.432,0.069,1.808,0.209c0.376,0.139,0.678,0.387,0.903,0.743c0.227,0.357,0.339,0.764,0.339,1.223
		c0,0.582-0.173,1.064-0.514,1.443c-0.342,0.378-0.854,0.618-1.536,0.716c0.34,0.199,0.62,0.416,0.841,0.653
		c0.221,0.236,0.517,0.656,0.891,1.259l0.949,1.514h-1.874l-1.133-1.689c-0.403-0.604-0.679-0.983-0.826-1.14
		c-0.149-0.158-0.306-0.264-0.473-0.324c-0.166-0.057-0.428-0.086-0.79-0.086h-0.315v3.239H244.568z M247.623,0
		c-1.932,0-3.682,0.784-4.948,2.051h-0.003c-1.268,1.267-2.052,3.018-2.052,4.951c0,1.934,0.784,3.685,2.052,4.952
		c1.267,1.267,3.018,2.051,4.951,2.051s3.685-0.784,4.951-2.051c1.268-1.267,2.052-3.018,2.052-4.952
		c0-1.933-0.784-3.684-2.052-4.951h-0.003C251.304,0.784,249.554,0,247.623,0 M251.547,3.079c-1.004-1.003-2.393-1.624-3.925-1.624
		s-2.922,0.621-3.926,1.624l0.002,0.001c-1.004,1.004-1.626,2.392-1.626,3.923c0,1.532,0.622,2.92,1.626,3.924
		s2.392,1.626,3.924,1.626c1.531,0,2.92-0.622,3.924-1.626s1.626-2.392,1.626-3.924C253.172,5.471,252.55,4.083,251.547,3.079
		L251.547,3.079z M246.136,6.406h1.159c0.752,0,1.221-0.031,1.408-0.094c0.187-0.064,0.332-0.174,0.439-0.329
		c0.105-0.155,0.159-0.349,0.159-0.582c0-0.262-0.07-0.472-0.209-0.632c-0.14-0.161-0.337-0.262-0.592-0.306
		c-0.126-0.016-0.508-0.025-1.144-0.025h-1.222V6.406z"/>
	<path clip-path="url(#SVGID_2_)" fill-rule="evenodd" clip-rule="evenodd" fill="#D10019" d="M18.203,7.338H226.37
		c10.014,0,18.203,8.191,18.203,18.203s-8.196,18.202-18.203,18.202H18.203C8.198,43.743,0,35.553,0,25.541S8.19,7.338,18.203,7.338
		"/>
	<path clip-path="url(#SVGID_2_)" fill-rule="evenodd" clip-rule="evenodd" fill="#FFFFFF" d="M35.771,30.715l-1.036,4.941H18.423
		l4.291-20.229h6.307l-3.283,15.288H35.771z M48.214,15.427l-4.333,20.229h-6.33l4.333-20.229H48.214z M70.79,21.277l-6.151,0.678
		c-0.561-1.602-1.705-2.402-3.425-2.402c-1.681,0-3.014,0.852-3.998,2.553c-0.984,1.7-1.479,3.523-1.479,5.463
		c0,1.121,0.367,2.063,1.097,2.822c0.73,0.758,1.663,1.139,2.793,1.139h0.057c1.285,0,2.421-0.33,3.396-0.994l0.452-2.166h-3.82
		l0.909-4.22h9.439l-2.03,9.504C64.882,35.219,61.766,36,58.675,36c-2.789,0-4.997-0.754-6.632-2.261
		c-1.629-1.512-2.449-3.631-2.449-6.363c0-2.28,0.523-4.376,1.559-6.278c1.041-1.903,2.506-3.382,4.399-4.437
		c1.889-1.051,4.055-1.578,6.504-1.578C66.837,15.083,69.752,17.146,70.79,21.277 M95.517,15.427l-4.347,20.229h-6.278l1.756-8.224
		h-6.777l-1.724,8.224h-6.335l4.347-20.229h6.278l-1.53,7.15h6.759l1.587-7.15H95.517z M117.39,15.427l-1.036,4.969h-6.565
		l-3.302,15.26h-6.279l3.288-15.26h-6.279l1.046-4.969H117.39z M135.825,21.042c-0.35-3.97-3.265-5.958-8.737-5.958
		c-1.729,0-3.212,0.264-4.447,0.791c-1.238,0.532-2.18,1.272-2.83,2.228c-0.65,0.961-0.975,2.016-0.975,3.175
		c0,1.271,0.396,2.355,1.182,3.259c0.787,0.899,2.666,1.884,5.638,2.953c1.295,0.466,2.11,0.876,2.44,1.225
		c0.334,0.353,0.499,0.734,0.499,1.149c0,0.551-0.259,1.041-0.782,1.474c-0.518,0.433-1.275,0.65-2.27,0.65
		c-0.985,0-1.752-0.259-2.308-0.782c-0.56-0.518-0.838-1.408-0.838-2.671l-5.878,0.401v0.471c0,1.931,0.673,3.514,2.016,4.748
		c1.342,1.229,3.622,1.846,6.829,1.846c2.286,0,4.042-0.33,5.28-0.983c1.234-0.66,2.186-1.498,2.841-2.511
		c0.658-1.017,0.988-2.114,0.988-3.292c0-1.253-0.306-2.294-0.914-3.132c-0.606-0.839-1.389-1.517-2.345-2.045
		c-0.956-0.522-2.195-1.078-3.726-1.667c-1.206-0.452-1.968-0.824-2.289-1.111c-0.32-0.292-0.485-0.598-0.485-0.919
		c0-0.442,0.202-0.819,0.603-1.14c0.4-0.315,0.97-0.475,1.719-0.475c1.828,0,2.807,0.88,2.938,2.637L135.825,21.042z
		 M166.911,15.427l-9.52,20.229h-6.128l-0.48-12.406h-0.057l-5.77,12.406h-6.25l-0.537-20.229h5.629l-0.288,12.349l0.066,0.057
		l5.591-12.406h6.071l0.287,12.486h0.057l5.204-12.486H166.911z M185.25,15.427h-16.531L164.4,35.656h17.375l0.992-4.611h-11.138
		l0.857-3.956h9.881l0.909-4.098h-9.896l0.678-3.217h10.268L185.25,15.427z M205.659,15.427l-0.923,4.347h-10.269l-0.678,3.217
		h9.895l-0.908,4.098h-9.882l-0.857,3.956h11.14l-0.994,4.611h-17.375l4.319-20.229H205.659z M227.282,15.427l-1.036,4.969h-6.566
		l-3.302,15.26h-6.278l3.288-15.26h-6.278l1.046-4.969H227.282z"/>
	<path clip-path="url(#SVGID_2_)" fill-rule="evenodd" clip-rule="evenodd" fill="#D10019" d="M16.57,57.907h3.696l-0.187-7.503
		L16.57,57.907z M19.239,49.341h2.072l0.952,13.998h-1.68l-0.261-4.012h-4.405l-1.885,4.012h-1.792L19.239,49.341z M26.779,49.303
		h1.512l-3.005,14.036h-1.455L26.779,49.303z M31.223,52.942h1.474l-2.24,10.396h-1.455L31.223,52.942z M31.95,49.303h1.512
		l-0.448,1.904h-1.418L31.95,49.303z M44.493,63.339l1.68-7.839c0.112-0.522,0.05-0.914-0.187-1.177
		c-0.236-0.261-0.578-0.392-1.026-0.392c-0.535,0-1.07,0.199-1.605,0.598c-0.536,0.398-0.872,0.939-1.008,1.623l-1.493,7.187h-1.456
		l1.624-7.839c0.099-0.522,0.04-0.921-0.178-1.194c-0.217-0.274-0.557-0.411-1.017-0.411c-0.336,0-0.687,0.087-1.055,0.261
		c-0.367,0.175-0.687,0.424-0.961,0.747c-0.273,0.323-0.454,0.703-0.541,1.139l-1.568,7.298h-1.456l2.184-10.396h1.456l-0.317,1.325
		c0.261-0.41,0.681-0.773,1.259-1.092c0.579-0.317,1.142-0.476,1.69-0.476c1.07,0,1.748,0.548,2.034,1.643
		c0.908-1.12,1.953-1.68,3.136-1.68c0.597,0,1.088,0.161,1.474,0.484c0.386,0.324,0.579,0.778,0.579,1.363
		c0,0.099-0.004,0.183-0.01,0.252c-0.006,0.068-0.015,0.146-0.028,0.233l-1.754,8.343H44.493z M53.507,57.067
		c0.137-0.635,0.205-1.182,0.205-1.643c0-0.945-0.348-1.443-1.045-1.493c-0.722-0.049-1.275,0.178-1.661,0.682
		c-0.386,0.505-0.722,1.322-1.008,2.454H53.507z M54.776,58.28h-5.021c-0.249,1.083-0.385,1.904-0.41,2.465
		c0.037,1.169,0.597,1.703,1.68,1.604c0.41-0.05,0.815-0.283,1.213-0.7c0.398-0.417,0.647-1.011,0.746-1.781h1.4
		c-0.249,1.257-0.746,2.192-1.493,2.809c-0.747,0.615-1.586,0.924-2.52,0.924c-0.112-0.013-0.211-0.021-0.298-0.028
		c-0.087-0.007-0.193-0.01-0.318-0.01c-1.207-0.224-1.829-1.219-1.866-2.985c0.037-1.083,0.268-2.315,0.69-3.696
		c0.299-0.958,0.66-1.751,1.083-2.379c0.423-0.629,0.908-1.096,1.456-1.4c0.547-0.305,1.114-0.451,1.698-0.438
		c0.896,0.024,1.54,0.282,1.932,0.774c0.392,0.491,0.538,1.328,0.439,2.51C55.138,56.384,55,57.161,54.776,58.28 M65.359,55.425
		l-1.717,7.914h-1.456l1.643-7.765c0.224-1.095-0.169-1.643-1.176-1.643c-0.56,0-1.102,0.188-1.624,0.56
		c-0.523,0.374-0.834,0.822-0.933,1.345l-1.606,7.503h-1.456l2.184-10.396h1.437l-0.261,1.213c0.373-0.484,0.837-0.854,1.391-1.109
		c0.553-0.255,1.11-0.383,1.67-0.383c0.598,0,1.073,0.158,1.428,0.476c0.355,0.318,0.532,0.812,0.532,1.484
		c0,0.111-0.003,0.198-0.01,0.261c-0.005,0.062-0.012,0.143-0.018,0.243C65.381,55.226,65.372,55.325,65.359,55.425 M69.727,63.339
		h-1.679c-0.423,0-0.722-0.071-0.896-0.214c-0.175-0.144-0.274-0.377-0.299-0.7c0-0.025,0.143-0.791,0.429-2.296l1.27-5.936h-1.456
		l0.261-1.251h1.456l0.578-2.8h1.456l-0.616,2.8h1.755l-0.261,1.251h-1.699l-1.474,6.888c-0.013,0.137-0.056,0.379-0.131,0.728
		c0,0.124,0.053,0.205,0.159,0.242c0.105,0.038,0.307,0.069,0.606,0.094c0.162-0.024,0.442-0.038,0.84-0.038L69.727,63.339z
		 M78.219,52.663c1.791,0.062,2.688,1.133,2.688,3.21c0,0.834-0.068,1.599-0.205,2.296c-0.212,0.996-0.488,1.9-0.831,2.716
		c-0.342,0.814-0.864,1.505-1.567,2.072c-0.703,0.565-1.621,0.78-2.754,0.644c-1.617-0.187-2.451-1.369-2.5-3.547
		c0.124-2.003,0.581-3.748,1.372-5.235C75.21,53.332,76.478,52.613,78.219,52.663 M79.171,58.02c0.161-1.17,0.242-1.885,0.242-2.146
		c0-1.169-0.386-1.816-1.157-1.941c-1.655-0.286-2.787,1.014-3.397,3.901c-0.199,0.958-0.317,1.786-0.355,2.482
		c0.013,0.709,0.168,1.22,0.467,1.53c0.299,0.311,0.747,0.467,1.344,0.467c0.821,0,1.456-0.441,1.904-1.325
		C78.667,60.104,78.984,59.114,79.171,58.02 M83.352,60.315c-0.074,0.298-0.118,0.591-0.13,0.877
		c0.012,0.46,0.165,0.769,0.457,0.924s0.681,0.233,1.167,0.233c0.671,0,1.207-0.208,1.605-0.625
		c0.398-0.417,0.597-0.887,0.597-1.409c0-0.273-0.037-0.492-0.112-0.653c-0.137-0.299-0.653-0.609-1.549-0.934
		c-0.896-0.323-1.565-0.672-2.007-1.045c-0.441-0.373-0.581-1.002-0.419-1.885c0.211-1.07,0.659-1.845,1.343-2.324
		c0.685-0.479,1.332-0.75,1.941-0.812c2.066-0.088,3.099,0.604,3.099,2.071c0,0.286-0.038,0.616-0.112,0.989h-1.419
		c0.062-0.224,0.093-0.454,0.093-0.691c0-0.695-0.373-1.062-1.119-1.101c-0.623-0.049-1.123,0.072-1.503,0.364
		c-0.379,0.293-0.619,0.693-0.719,1.204c-0.012,0.074-0.021,0.146-0.028,0.215c-0.006,0.067-0.021,0.151-0.046,0.252
		c0.012,0.361,0.128,0.615,0.345,0.765c0.218,0.149,0.675,0.387,1.372,0.709c0.921,0.398,1.596,0.781,2.025,1.148
		c0.429,0.367,0.569,0.942,0.42,1.727c-0.124,0.622-0.376,1.186-0.756,1.689s-0.861,0.896-1.446,1.176s-1.226,0.42-1.923,0.42
		c-0.485,0-0.921-0.05-1.306-0.15c-0.909-0.248-1.388-0.964-1.437-2.146c0.024-0.274,0.074-0.604,0.149-0.989H83.352z
		 M100.262,61.846c-0.696,1.194-1.667,1.792-2.911,1.792c-0.311,0-0.579-0.037-0.803-0.112c-0.933-0.311-1.418-1.164-1.456-2.557
		c0.013-0.249,0.112-1.076,0.299-2.482c0.174-1.157,0.47-2.181,0.886-3.07c0.417-0.89,0.909-1.562,1.475-2.017
		c0.566-0.454,1.185-0.699,1.857-0.736c0.485-0.025,0.912,0.062,1.279,0.261c0.367,0.199,0.693,0.585,0.98,1.158l1.026-4.779h1.456
		L101.4,63.339h-1.456L100.262,61.846z M101.064,57.833c0.149-0.971,0.224-1.648,0.224-2.034c0-1.245-0.461-1.867-1.381-1.867
		c-0.436-0.012-0.834,0.116-1.195,0.383c-0.361,0.268-0.687,0.723-0.98,1.362c-0.292,0.641-0.55,1.459-0.774,2.455
		c-0.212,0.97-0.336,1.798-0.373,2.481c0.049,1.096,0.46,1.675,1.231,1.736C99.41,62.499,100.492,60.994,101.064,57.833
		 M106.72,55.761c0.125-0.734,0.333-1.222,0.626-1.465c0.292-0.242,0.749-0.364,1.371-0.364c0.834,0,1.251,0.343,1.251,1.027
		c0,0.447-0.125,0.982-0.373,1.604c-0.125,0.112-0.315,0.225-0.57,0.336c-0.255,0.112-0.594,0.24-1.017,0.383
		c-0.423,0.144-0.777,0.276-1.064,0.401c-0.174,0.062-0.395,0.146-0.662,0.252c-0.268,0.106-0.501,0.211-0.7,0.317
		c-0.199,0.105-0.367,0.218-0.504,0.336c-0.137,0.118-0.293,0.276-0.467,0.476c-0.224,0.286-0.417,0.675-0.578,1.167
		c-0.162,0.491-0.249,0.967-0.262,1.427c0.05,1.108,0.486,1.73,1.307,1.867c0.249,0.05,0.504,0.075,0.765,0.075
		c1.17,0,2.103-0.573,2.8-1.718c0,0.262-0.007,0.441-0.019,0.542c0.012,0.049,0.019,0.09,0.019,0.121s0.003,0.081,0.009,0.148
		c0.006,0.069,0.016,0.128,0.028,0.179c0.062,0.359,0.404,0.541,1.027,0.541c0.074,0,0.224-0.017,0.447-0.048
		c0.225-0.03,0.368-0.053,0.43-0.064l0.224-1.064c-0.125,0-0.224,0.013-0.299,0.037c-0.336-0.037-0.504-0.154-0.504-0.354
		c0.025-0.075,0.038-0.162,0.038-0.263c0.211-1.069,0.432-2.114,0.662-3.135c0.23-1.02,0.42-1.954,0.569-2.8
		c0.1-0.547,0.15-0.964,0.15-1.25c0-1.083-0.678-1.674-2.035-1.773c-1.157-0.087-2.075,0.146-2.753,0.699
		c-0.678,0.555-1.085,1.341-1.222,2.361H106.72z M109.352,57.721l-0.597,2.706c-0.125,0.61-0.442,1.099-0.952,1.466
		c-0.51,0.367-1.027,0.52-1.549,0.457c-0.548-0.062-0.84-0.397-0.878-1.008c0.013-0.348,0.097-0.721,0.252-1.12
		c0.156-0.398,0.315-0.709,0.476-0.933c0.112-0.124,0.29-0.243,0.532-0.355c0.243-0.111,0.713-0.311,1.409-0.597
		C108.742,58.051,109.177,57.846,109.352,57.721 M126.411,57.535h-3.135l0.317-1.383h4.666l-1.568,7.298h-1.232L126,61.154
		c-0.361,0.822-0.896,1.447-1.606,1.876c-0.709,0.431-1.474,0.645-2.295,0.645c-0.672,0-1.257-0.124-1.755-0.373
		c-0.995-0.485-1.518-1.644-1.568-3.472c0.025-1.406,0.393-3.298,1.102-5.675c0.535-1.766,1.257-3.051,2.165-3.854
		c0.908-0.802,1.984-1.222,3.229-1.26c1.107-0.037,1.975,0.215,2.603,0.756c0.629,0.542,0.943,1.335,0.943,2.38
		c0,0.397-0.037,0.803-0.112,1.213h-1.53c0.024-0.199,0.037-0.467,0.037-0.802c0-1.481-0.734-2.185-2.203-2.11
		c-1.045,0.038-1.875,0.477-2.491,1.316c-0.616,0.84-1.154,2.293-1.615,4.357c-0.311,1.369-0.485,2.576-0.522,3.621
		c0.012,0.848,0.18,1.47,0.504,1.867c0.323,0.398,0.802,0.609,1.437,0.634c1.107,0.05,1.994-0.326,2.659-1.129
		C125.648,60.344,126.125,59.14,126.411,57.535 M134.362,57.067c0.137-0.635,0.205-1.182,0.205-1.643
		c0-0.945-0.349-1.443-1.045-1.493c-0.722-0.049-1.275,0.178-1.661,0.682c-0.386,0.505-0.722,1.322-1.009,2.454H134.362z
		 M135.63,58.28c0.224-1.119,0.361-1.896,0.411-2.333c0.1-1.182-0.047-2.019-0.438-2.51c-0.392-0.492-1.036-0.75-1.932-0.774
		c-0.585-0.013-1.151,0.134-1.699,0.438c-0.547,0.305-1.031,0.771-1.456,1.4c-0.423,0.628-0.782,1.421-1.082,2.379
		c-0.423,1.381-0.652,2.613-0.69,3.696c0.038,1.767,0.66,2.762,1.867,2.985c0.124,0,0.229,0.003,0.316,0.01s0.188,0.016,0.299,0.028
		c0.934,0,1.773-0.309,2.52-0.924c0.747-0.616,1.245-1.552,1.494-2.809h-1.4c-0.1,0.771-0.349,1.364-0.747,1.781
		c-0.397,0.417-0.803,0.65-1.213,0.7c-1.083,0.099-1.643-0.436-1.68-1.604c0.024-0.561,0.162-1.382,0.411-2.465H135.63z
		 M141.64,52.942l-0.354,1.755c0.46-0.646,0.93-1.136,1.409-1.466c0.479-0.329,1.16-0.469,2.044-0.419l-0.28,1.493
		c-0.1-0.025-0.305-0.038-0.616-0.038c-0.646,0-1.254,0.193-1.819,0.579c-0.566,0.386-0.949,1.064-1.148,2.034l-1.381,6.458h-1.493
		l2.221-10.396H141.64z M146.642,55.761c0.125-0.734,0.333-1.222,0.626-1.465c0.292-0.242,0.75-0.364,1.371-0.364
		c0.834,0,1.251,0.343,1.251,1.027c0,0.447-0.124,0.982-0.373,1.604c-0.125,0.112-0.313,0.225-0.569,0.336
		c-0.255,0.112-0.595,0.24-1.018,0.383c-0.423,0.144-0.776,0.276-1.063,0.401c-0.174,0.062-0.396,0.146-0.662,0.252
		c-0.269,0.106-0.501,0.211-0.7,0.317c-0.199,0.105-0.367,0.218-0.504,0.336s-0.293,0.276-0.467,0.476
		c-0.225,0.286-0.417,0.675-0.578,1.167c-0.162,0.491-0.249,0.967-0.262,1.427c0.05,1.108,0.485,1.73,1.307,1.867
		c0.249,0.05,0.504,0.075,0.765,0.075c1.17,0,2.104-0.573,2.801-1.718c0,0.262-0.007,0.441-0.02,0.542
		c0.013,0.049,0.02,0.09,0.02,0.121s0.003,0.081,0.009,0.148c0.006,0.069,0.016,0.128,0.027,0.179
		c0.062,0.359,0.404,0.541,1.027,0.541c0.074,0,0.224-0.017,0.448-0.048c0.224-0.03,0.367-0.053,0.429-0.064l0.225-1.064
		c-0.125,0-0.225,0.013-0.3,0.037c-0.336-0.037-0.504-0.154-0.504-0.354c0.025-0.075,0.038-0.162,0.038-0.263
		c0.211-1.069,0.433-2.114,0.662-3.135c0.23-1.02,0.42-1.954,0.57-2.8c0.099-0.547,0.148-0.964,0.148-1.25
		c0-1.083-0.678-1.674-2.035-1.773c-1.156-0.087-2.073,0.146-2.752,0.699c-0.679,0.555-1.086,1.341-1.223,2.361H146.642z
		 M149.275,57.721l-0.598,2.706c-0.125,0.61-0.441,1.099-0.952,1.466c-0.51,0.367-1.026,0.52-1.549,0.457
		c-0.548-0.062-0.84-0.397-0.878-1.008c0.013-0.348,0.097-0.721,0.252-1.12c0.156-0.398,0.315-0.709,0.477-0.933
		c0.111-0.124,0.29-0.243,0.532-0.355c0.242-0.111,0.713-0.311,1.409-0.597S149.1,57.846,149.275,57.721 M161.034,56.228h-1.382
		c0.074-0.286,0.111-0.565,0.111-0.84c0-0.473-0.124-0.834-0.373-1.082c-0.249-0.249-0.585-0.374-1.008-0.374
		c-0.397,0-0.765,0.112-1.101,0.336c-0.622,0.411-1.129,1.319-1.521,2.726c-0.392,1.405-0.6,2.551-0.625,3.434
		c-0.013,0.573,0.09,1.027,0.309,1.363c0.218,0.336,0.507,0.522,0.866,0.56c1.383,0.099,2.266-0.771,2.651-2.613h1.344
		c-0.024,0.336-0.165,0.807-0.42,1.409c-0.255,0.604-0.641,1.151-1.157,1.644c-0.517,0.49-1.153,0.762-1.913,0.812l-0.878,0.914
		c0.125-0.025,0.225-0.04,0.3-0.047c0.073-0.006,0.155-0.015,0.242-0.027c0.436,0,0.766,0.105,0.989,0.317
		c0.225,0.211,0.336,0.479,0.336,0.802c0,0.585-0.271,1.055-0.812,1.41c-0.541,0.354-1.123,0.531-1.745,0.531
		c-0.486,0-1.07-0.124-1.755-0.373l0.504-0.766c0.397,0.199,0.778,0.299,1.139,0.299c0.299,0,0.572-0.083,0.821-0.253
		c0.249-0.167,0.373-0.388,0.373-0.661c0-0.349-0.261-0.542-0.784-0.579c-0.186,0.037-0.41,0.075-0.672,0.111l-0.242-0.335
		l1.27-1.344c-1.493-0.175-2.259-1.114-2.297-2.819c0.125-1.555,0.355-2.893,0.691-4.013c0.796-2.625,2.196-3.994,4.199-4.105
		c0.858-0.037,1.515,0.165,1.97,0.606c0.454,0.441,0.681,1.085,0.681,1.933C161.145,55.524,161.108,55.866,161.034,56.228
		 M165.307,55.761H164c0.137-1.021,0.545-1.807,1.223-2.361c0.679-0.553,1.597-0.786,2.753-0.699c1.356,0.1,2.034,0.69,2.034,1.773
		c0,0.286-0.05,0.703-0.148,1.25c-0.149,0.846-0.339,1.78-0.569,2.8c-0.23,1.021-0.451,2.065-0.663,3.135
		c0,0.101-0.012,0.188-0.037,0.263c0,0.199,0.168,0.316,0.504,0.354c0.074-0.024,0.174-0.037,0.298-0.037l-0.224,1.064
		c-0.062,0.012-0.205,0.034-0.429,0.064c-0.225,0.031-0.373,0.048-0.448,0.048c-0.622,0-0.964-0.182-1.026-0.541
		c-0.013-0.051-0.021-0.109-0.027-0.179c-0.007-0.067-0.011-0.117-0.011-0.148s-0.006-0.072-0.018-0.121
		c0.012-0.101,0.018-0.28,0.018-0.542c-0.695,1.145-1.63,1.718-2.8,1.718c-0.26,0-0.516-0.025-0.765-0.075
		c-0.821-0.137-1.256-0.759-1.306-1.867c0.012-0.46,0.099-0.936,0.261-1.427c0.162-0.492,0.354-0.881,0.579-1.167
		c0.174-0.199,0.329-0.357,0.466-0.476s0.305-0.23,0.505-0.336c0.198-0.106,0.432-0.211,0.699-0.317
		c0.268-0.105,0.489-0.189,0.663-0.252c0.286-0.125,0.641-0.258,1.063-0.401c0.423-0.143,0.763-0.271,1.018-0.383
		c0.255-0.111,0.444-0.224,0.568-0.336c0.249-0.622,0.373-1.157,0.373-1.604c0-0.685-0.417-1.027-1.25-1.027
		c-0.622,0-1.08,0.122-1.372,0.364C165.64,54.539,165.431,55.026,165.307,55.761 M167.939,57.721
		c-0.175,0.125-0.609,0.33-1.307,0.616s-1.166,0.485-1.409,0.597c-0.242,0.112-0.42,0.231-0.531,0.355
		c-0.162,0.224-0.32,0.534-0.477,0.933c-0.155,0.399-0.24,0.772-0.252,1.12c0.037,0.61,0.33,0.946,0.877,1.008
		c0.523,0.062,1.039-0.09,1.549-0.457c0.512-0.367,0.828-0.855,0.952-1.466L167.939,57.721z M165.774,51.524h-0.877
		c0.125-0.535,0.386-1.008,0.783-1.419c0.398-0.41,0.896-0.616,1.493-0.616c0.312,0,0.744,0.115,1.298,0.347
		c0.554,0.229,0.955,0.356,1.203,0.382c0.523-0.037,0.902-0.33,1.14-0.877h0.877c-0.075,0.336-0.292,0.759-0.653,1.269
		c-0.361,0.511-0.946,0.766-1.755,0.766c-0.224,0-0.604-0.115-1.139-0.346c-0.534-0.229-0.958-0.345-1.269-0.345
		C166.415,50.685,166.047,50.965,165.774,51.524 M177.738,52.663c1.792,0.062,2.688,1.133,2.688,3.21
		c0,0.834-0.067,1.599-0.205,2.296c-0.212,0.996-0.488,1.9-0.831,2.716c-0.342,0.814-0.864,1.505-1.567,2.072
		c-0.703,0.565-1.62,0.78-2.753,0.644c-1.617-0.187-2.451-1.369-2.501-3.547c0.125-2.003,0.582-3.748,1.372-5.235
		C174.729,53.332,175.996,52.613,177.738,52.663 M178.69,58.02c0.161-1.17,0.242-1.885,0.242-2.146c0-1.169-0.386-1.816-1.156-1.941
		c-1.655-0.286-2.787,1.014-3.397,3.901c-0.199,0.958-0.318,1.786-0.354,2.482c0.013,0.709,0.168,1.22,0.467,1.53
		c0.298,0.311,0.746,0.467,1.344,0.467c0.821,0,1.455-0.441,1.903-1.325C178.185,60.104,178.503,59.114,178.69,58.02
		 M195.935,53.018h-1.567c0.062-0.349,0.094-0.653,0.094-0.915c0-1.106-0.666-1.661-1.997-1.661
		c-0.872,0.014-1.543,0.309-2.016,0.888c-0.474,0.577-0.759,1.314-0.859,2.211c0.013,0.473,0.171,0.814,0.477,1.026
		c0.305,0.212,0.887,0.474,1.744,0.784c1.096,0.46,1.93,0.899,2.501,1.316c0.573,0.416,0.834,1.036,0.784,1.856
		c-0.073,1.045-0.367,1.985-0.877,2.818c-0.535,0.884-1.225,1.493-2.071,1.829s-1.631,0.504-2.353,0.504
		c-2.127,0-3.291-0.84-3.49-2.521c0-0.049-0.012-0.099-0.037-0.148c0.062-0.721,0.188-1.425,0.373-2.109h1.531
		c-0.162,0.548-0.262,1.095-0.299,1.643c0.037,1.058,0.585,1.624,1.643,1.698c0.211,0,0.379,0.013,0.504,0.037
		c1.519-0.049,2.514-0.616,2.986-1.697c0.249-0.586,0.373-1.133,0.373-1.644c0-0.373-0.037-0.64-0.112-0.802
		c-0.087-0.149-0.215-0.283-0.382-0.401c-0.168-0.119-0.498-0.273-0.99-0.467c-0.49-0.193-0.849-0.333-1.072-0.42
		c-1.021-0.411-1.751-0.834-2.193-1.27s-0.669-1.032-0.681-1.792c0.024-0.174,0.04-0.313,0.046-0.42
		c0.007-0.105,0.016-0.221,0.028-0.345c0.062-0.498,0.271-1.063,0.626-1.699c0.354-0.634,0.864-1.172,1.529-1.613
		c0.666-0.442,1.49-0.663,2.474-0.663c2.276,0,3.416,0.89,3.416,2.669C196.067,52.146,196.023,52.582,195.935,53.018 M197.97,55.761
		c0.124-0.734,0.332-1.222,0.625-1.465c0.292-0.242,0.75-0.364,1.372-0.364c0.833,0,1.25,0.343,1.25,1.027
		c0,0.447-0.124,0.982-0.373,1.604c-0.125,0.112-0.313,0.225-0.568,0.336c-0.256,0.112-0.595,0.24-1.019,0.383
		c-0.423,0.144-0.776,0.276-1.062,0.401c-0.176,0.062-0.396,0.146-0.663,0.252c-0.269,0.106-0.501,0.211-0.7,0.317
		c-0.199,0.105-0.367,0.218-0.504,0.336s-0.292,0.276-0.466,0.476c-0.225,0.286-0.417,0.675-0.579,1.167
		c-0.162,0.491-0.249,0.967-0.261,1.427c0.049,1.108,0.484,1.73,1.306,1.867c0.249,0.05,0.504,0.075,0.765,0.075
		c1.17,0,2.104-0.573,2.8-1.718c0,0.262-0.006,0.441-0.019,0.542c0.013,0.049,0.019,0.09,0.019,0.121s0.003,0.081,0.01,0.148
		c0.007,0.069,0.016,0.128,0.027,0.179c0.063,0.359,0.405,0.541,1.027,0.541c0.075,0,0.224-0.017,0.448-0.048
		c0.224-0.03,0.367-0.053,0.429-0.064l0.224-1.064c-0.124,0-0.224,0.013-0.299,0.037c-0.336-0.037-0.503-0.154-0.503-0.354
		c0.024-0.075,0.037-0.162,0.037-0.263c0.212-1.069,0.432-2.114,0.663-3.135c0.229-1.02,0.419-1.954,0.569-2.8
		c0.099-0.547,0.148-0.964,0.148-1.25c0-1.083-0.678-1.674-2.034-1.773c-1.157-0.087-2.074,0.146-2.753,0.699
		c-0.679,0.555-1.086,1.341-1.223,2.361H197.97z M200.601,57.721l-0.597,2.706c-0.124,0.61-0.442,1.099-0.952,1.466
		s-1.025,0.52-1.549,0.457c-0.547-0.062-0.84-0.397-0.877-1.008c0.012-0.348,0.096-0.721,0.252-1.12
		c0.155-0.398,0.314-0.709,0.476-0.933c0.112-0.124,0.289-0.243,0.532-0.355c0.242-0.111,0.712-0.311,1.409-0.597
		S200.427,57.846,200.601,57.721 M207.003,52.942h1.456l-1.736,8.324c-0.148,0.722,0.212,1.108,1.083,1.158
		c0.585-0.025,1.148-0.252,1.689-0.682s0.893-1.055,1.054-1.875l1.493-6.926h1.456l-2.183,10.396h-1.493l0.279-1.418
		c-0.858,1.119-1.829,1.68-2.911,1.68c-0.286,0-0.505-0.013-0.654-0.038c-0.833-0.137-1.27-0.697-1.306-1.68
		c0.05-0.572,0.105-1.021,0.168-1.344L207.003,52.942z M209.262,51.711l2.202-2.669h2.034l-2.986,2.669H209.262z M219.508,61.846
		c-0.696,1.194-1.667,1.792-2.911,1.792c-0.311,0-0.579-0.037-0.803-0.112c-0.933-0.311-1.418-1.164-1.456-2.557
		c0.013-0.249,0.112-1.076,0.299-2.482c0.174-1.157,0.471-2.181,0.887-3.07c0.417-0.89,0.908-1.562,1.475-2.017
		c0.566-0.454,1.185-0.699,1.857-0.736c0.484-0.025,0.911,0.062,1.278,0.261s0.693,0.585,0.98,1.158l1.025-4.779h1.456
		l-2.948,14.036h-1.456L219.508,61.846z M220.311,57.833c0.149-0.971,0.225-1.648,0.225-2.034c0-1.245-0.461-1.867-1.381-1.867
		c-0.437-0.012-0.834,0.116-1.195,0.383c-0.361,0.268-0.687,0.723-0.98,1.362c-0.292,0.641-0.55,1.459-0.773,2.455
		c-0.212,0.97-0.336,1.798-0.373,2.481c0.049,1.096,0.46,1.675,1.23,1.736C218.657,62.499,219.74,60.994,220.311,57.833
		 M229.214,57.067c0.137-0.635,0.205-1.182,0.205-1.643c0-0.945-0.348-1.443-1.045-1.493c-0.722-0.049-1.275,0.178-1.661,0.682
		c-0.386,0.505-0.722,1.322-1.008,2.454H229.214z M230.484,58.28c0.224-1.119,0.36-1.896,0.41-2.333
		c0.1-1.182-0.047-2.019-0.438-2.51c-0.393-0.492-1.036-0.75-1.932-0.774c-0.584-0.013-1.151,0.134-1.698,0.438
		c-0.548,0.305-1.033,0.771-1.456,1.4c-0.423,0.628-0.784,1.421-1.083,2.379c-0.423,1.381-0.653,2.613-0.69,3.696
		c0.037,1.767,0.659,2.762,1.866,2.985c0.125,0,0.23,0.003,0.318,0.01c0.087,0.007,0.186,0.016,0.298,0.028
		c0.933,0,1.772-0.309,2.52-0.924c0.747-0.616,1.244-1.552,1.493-2.809h-1.399c-0.1,0.771-0.349,1.364-0.746,1.781
		c-0.398,0.417-0.804,0.65-1.213,0.7c-1.083,0.099-1.644-0.436-1.681-1.604c0.025-0.561,0.161-1.382,0.41-2.465H230.484z"/>
</g>
</svg>
